<svg width="154" height="28" viewBox="0 0 154 28" fill="none" xmlns="http://www.w3.org/2000/svg">
<path fill-rule="evenodd" clip-rule="evenodd" d="M13.8532 0.362189C13.0158 -0.12073 11.9842 -0.12073 11.1468 0.36219L1.35316 6.01049C0.515824 6.4934 0 7.38588 0 8.35172V19.6483C0 20.6142 0.515824 21.5067 1.35316 21.9895L11.1468 27.6379C11.9842 28.1207 13.0158 28.1207 13.8532 27.6379L23.6468 21.9895C24.4842 21.5067 25 20.6142 25 19.6483V8.35172C25 7.38588 24.4842 6.4934 23.6468 6.01049L13.8532 0.362189ZM10.5169 7.35411C10.8637 7.35411 11.1448 7.63782 11.1448 7.98781V9.48955C11.1448 9.83953 10.8637 10.1232 10.5169 10.1232H9.12285C8.77604 10.1232 8.49492 10.407 8.49492 10.7569V20.0122C8.49492 20.3622 8.21379 20.646 7.86698 20.646H6.37889C6.03209 20.646 5.75096 20.3622 5.75096 20.0122V10.7569C5.75096 10.407 6.03209 10.1232 6.37889 10.1232H7.7729C8.1197 10.1232 8.40083 9.83952 8.40083 9.48955V7.98781C8.40083 7.63782 8.68198 7.35411 9.02876 7.35411H10.5169ZM16.0048 7.35411C16.3516 7.35411 16.6327 7.63782 16.6327 7.98781V9.48955C16.6327 9.83952 16.9139 10.1232 17.2607 10.1232H18.6547C19.0015 10.1232 19.2825 10.407 19.2825 10.7569V20.0122C19.2825 20.3622 19.0015 20.646 18.6547 20.646H17.1665C16.8198 20.646 16.5387 20.3622 16.5387 20.0122V10.7569C16.5387 10.407 16.2575 10.1232 15.9107 10.1232H14.5167C14.1698 10.1232 13.8888 9.83952 13.8888 9.48955V7.98781C13.8888 7.63782 14.1698 7.35411 14.5167 7.35411H16.0048ZM13.2608 12.655C13.6076 12.655 13.8888 12.9387 13.8888 13.2887V17.4013C13.8888 17.7513 13.6076 18.0351 13.2608 18.0351H11.7727C11.4259 18.0351 11.1448 17.7513 11.1448 17.4013V13.2887C11.1448 12.9387 11.4259 12.655 11.7727 12.655H13.2608Z" fill="white"/>
<path d="M34 23V6H40.6701C41.9293 6 42.9758 6.19369 43.8095 6.58106C44.649 6.9629 45.2758 7.48585 45.6898 8.14992C46.1095 8.81397 46.3194 9.56657 46.3194 10.4077C46.3194 11.0994 46.1832 11.6916 45.911 12.1841C45.6387 12.6711 45.2729 13.0667 44.8135 13.3711C44.354 13.6755 43.8407 13.894 43.2736 14.0269V14.1929C43.8917 14.226 44.4845 14.4114 45.0518 14.7491C45.6245 15.0811 46.0924 15.5514 46.4555 16.1602C46.8185 16.769 47 17.5048 47 18.3682C47 19.248 46.7817 20.0394 46.3449 20.7423C45.9081 21.4394 45.2502 21.9901 44.371 22.394C43.4919 22.7981 42.386 23 41.053 23H34ZM37.1563 20.4267H40.5511C41.6967 20.4267 42.5221 20.2137 43.0268 19.7875C43.5373 19.356 43.7926 18.8026 43.7926 18.1275C43.7926 17.6239 43.6649 17.1701 43.4097 16.7662C43.1544 16.3567 42.7914 16.0357 42.3207 15.8033C41.8499 15.5653 41.2884 15.4464 40.6361 15.4464H37.1563V20.4267ZM37.1563 13.23H40.2788C40.8233 13.23 41.3138 13.1331 41.7506 12.9395C42.1874 12.7402 42.5305 12.4608 42.7801 12.1011C43.0354 11.7358 43.163 11.3042 43.163 10.8062C43.163 10.1476 42.9247 9.60532 42.4482 9.17921C41.9775 8.75309 41.277 8.54005 40.3468 8.54005H37.1563V13.23Z" fill="white"/>
<path d="M52 6V23H49V6H52Z" fill="white"/>
<path d="M60 23C58.7771 23 57.7174 22.7295 56.8207 22.1885C55.9239 21.6475 55.2282 20.8906 54.7336 19.918C54.2445 18.9454 54 17.8087 54 16.5082C54 15.2076 54.2445 14.0683 54.7336 13.0901C55.2282 12.112 55.9239 11.3525 56.8207 10.8115C57.7174 10.2705 58.7771 10 60 10C61.2229 10 62.2826 10.2705 63.1793 10.8115C64.0761 11.3525 64.7691 12.112 65.2582 13.0901C65.7528 14.0683 66 15.2076 66 16.5082C66 17.8087 65.7528 18.9454 65.2582 19.918C64.7691 20.8906 64.0761 21.6475 63.1793 22.1885C62.2826 22.7295 61.2229 23 60 23ZM60.0162 20.6229C60.6794 20.6229 61.2336 20.4398 61.6793 20.0738C62.1249 19.7022 62.4565 19.2049 62.6739 18.582C62.8967 17.9589 63.0082 17.265 63.0082 16.5C63.0082 15.7295 62.8967 15.0327 62.6739 14.4098C62.4565 13.7814 62.1249 13.2814 61.6793 12.9098C61.2336 12.5382 60.6794 12.3524 60.0162 12.3524C59.337 12.3524 58.7717 12.5382 58.3206 12.9098C57.8749 13.2814 57.5408 13.7814 57.3179 14.4098C57.1006 15.0327 56.9918 15.7295 56.9918 16.5C56.9918 17.265 57.1006 17.9589 57.3179 18.582C57.5408 19.2049 57.8749 19.7022 58.3206 20.0738C58.7717 20.4398 59.337 20.6229 60.0162 20.6229Z" fill="white"/>
<path d="M74.3358 23C73.0157 23 71.8823 22.724 70.9354 22.1721C69.9943 21.6201 69.2684 20.8579 68.7575 19.8852C68.2526 18.907 68 17.7813 68 16.5082C68 15.2295 68.2583 14.1011 68.7748 13.1229C69.2913 12.1393 70.0202 11.3743 70.9613 10.8279C71.9082 10.276 73.0273 10 74.3185 10C75.3917 10 76.3414 10.1885 77.1679 10.5656C78 10.9372 78.6628 11.4645 79.1564 12.1475C79.6499 12.8251 79.9311 13.6175 80 14.5246H77.0216C76.901 13.918 76.6142 13.4126 76.1607 13.0082C75.7131 12.5984 75.1133 12.3934 74.3616 12.3934C73.7246 12.3934 73.165 12.5574 72.683 12.8852C72.2009 13.2076 71.8251 13.6721 71.5552 14.2787C71.2913 14.8853 71.1593 15.6121 71.1593 16.459C71.1593 17.317 71.2913 18.0546 71.5552 18.6721C71.8193 19.2841 72.1894 19.7569 72.6658 20.0901C73.1479 20.418 73.7131 20.5819 74.3616 20.5819C74.8206 20.5819 75.2311 20.4999 75.5926 20.3361C75.9598 20.1666 76.2669 19.9235 76.5137 19.6065C76.7604 19.2896 76.9297 18.9043 77.0216 18.4509H80C79.9255 19.3415 79.6499 20.1311 79.1735 20.8196C78.6972 21.5027 78.0488 22.0382 77.2282 22.4261C76.4075 22.8087 75.4433 23 74.3358 23Z" fill="white"/>
<path d="M84.5984 18.9991L84.5905 15.3716H85.0473L89.3937 10.25H92.7245L87.378 16.5254H86.7875L84.5984 18.9991ZM82 23V6H84.8504V23H82ZM89.5906 23L85.6536 17.1977L87.5748 15.0811L93 23H89.5906Z" fill="white"/>
<path d="M104.724 13.4918L101.964 13.7869C101.885 13.5136 101.749 13.2568 101.554 13.0164C101.364 12.7759 101.108 12.582 100.784 12.4344C100.461 12.2869 100.065 12.2131 99.5963 12.2131C98.966 12.2131 98.4363 12.347 98.0069 12.6147C97.583 12.8825 97.3739 13.2295 97.3795 13.6557C97.3739 14.0218 97.5106 14.3196 97.7894 14.5491C98.0738 14.7787 98.5423 14.9672 99.1947 15.1148L101.386 15.5737C102.602 15.8306 103.506 16.2377 104.097 16.795C104.693 17.3524 104.994 18.082 105 18.9836C104.994 19.7759 104.757 20.4754 104.289 21.0819C103.826 21.683 103.182 22.1529 102.357 22.4918C101.531 22.8305 100.583 23 99.5125 23C97.94 23 96.674 22.6776 95.7149 22.0327C94.7557 21.3825 94.184 20.4782 94 19.3196L96.9529 19.0409C97.0867 19.6093 97.3711 20.0382 97.8062 20.3278C98.2411 20.6174 98.8072 20.7622 99.5043 20.7622C100.224 20.7622 100.801 20.6174 101.236 20.3278C101.676 20.0382 101.897 19.6802 101.897 19.2541C101.897 18.8934 101.754 18.5955 101.47 18.3607C101.191 18.1257 100.756 17.9454 100.165 17.8197L97.9734 17.3689C96.741 17.1174 95.8293 16.694 95.238 16.0984C94.6469 15.4972 94.3542 14.7377 94.3597 13.8197C94.3542 13.0437 94.5689 12.3716 95.0038 11.8033C95.4444 11.2295 96.0551 10.7869 96.8358 10.4754C97.6222 10.1585 98.5283 10 99.5545 10C101.06 10 102.245 10.3142 103.109 10.9426C103.979 11.571 104.518 12.4208 104.724 13.4918Z" fill="white"/>
<path d="M112.336 23C111.016 23 109.882 22.724 108.935 22.1721C107.994 21.6201 107.268 20.8579 106.758 19.8852C106.253 18.907 106 17.7813 106 16.5082C106 15.2295 106.258 14.1011 106.775 13.1229C107.291 12.1393 108.02 11.3743 108.961 10.8279C109.908 10.276 111.027 10 112.319 10C113.392 10 114.341 10.1885 115.168 10.5656C116 10.9372 116.663 11.4645 117.156 12.1475C117.65 12.8251 117.931 13.6175 118 14.5246H115.022C114.901 13.918 114.614 13.4126 114.161 13.0082C113.713 12.5984 113.113 12.3934 112.362 12.3934C111.725 12.3934 111.165 12.5574 110.683 12.8852C110.201 13.2076 109.825 13.6721 109.555 14.2787C109.291 14.8853 109.159 15.6121 109.159 16.459C109.159 17.317 109.291 18.0546 109.555 18.6721C109.819 19.2841 110.189 19.7569 110.666 20.0901C111.148 20.418 111.713 20.5819 112.362 20.5819C112.821 20.5819 113.231 20.4999 113.593 20.3361C113.96 20.1666 114.267 19.9235 114.514 19.6065C114.76 19.2896 114.93 18.9043 115.022 18.4509H118C117.925 19.3415 117.65 20.1311 117.174 20.8196C116.697 21.5027 116.049 22.0382 115.228 22.4261C114.408 22.8087 113.443 23 112.336 23Z" fill="white"/>
<path d="M125 23C123.777 23 122.717 22.7295 121.821 22.1885C120.924 21.6475 120.228 20.8906 119.734 19.918C119.245 18.9454 119 17.8087 119 16.5082C119 15.2076 119.245 14.0683 119.734 13.0901C120.228 12.112 120.924 11.3525 121.821 10.8115C122.717 10.2705 123.777 10 125 10C126.223 10 127.283 10.2705 128.179 10.8115C129.076 11.3525 129.769 12.112 130.258 13.0901C130.753 14.0683 131 15.2076 131 16.5082C131 17.8087 130.753 18.9454 130.258 19.918C129.769 20.8906 129.076 21.6475 128.179 22.1885C127.283 22.7295 126.223 23 125 23ZM125.016 20.6229C125.679 20.6229 126.234 20.4398 126.679 20.0738C127.125 19.7022 127.457 19.2049 127.674 18.582C127.897 17.9589 128.008 17.265 128.008 16.5C128.008 15.7295 127.897 15.0327 127.674 14.4098C127.457 13.7814 127.125 13.2814 126.679 12.9098C126.234 12.5382 125.679 12.3524 125.016 12.3524C124.337 12.3524 123.772 12.5382 123.321 12.9098C122.875 13.2814 122.541 13.7814 122.318 14.4098C122.101 15.0327 121.992 15.7295 121.992 16.5C121.992 17.265 122.101 17.9589 122.318 18.582C122.541 19.2049 122.875 19.7022 123.321 20.0738C123.772 20.4398 124.337 20.6229 125.016 20.6229Z" fill="white"/>
<path d="M142.03 17.4358V10H145V22.833H142.12V20.5521H141.99C141.706 21.2706 141.238 21.8582 140.587 22.3149C139.941 22.7716 139.146 23 138.2 23C137.374 23 136.644 22.8135 136.01 22.4403C135.381 22.0616 134.889 21.5129 134.533 20.7943C134.178 20.0703 134 19.1958 134 18.1711V10H136.969V17.7032C136.969 18.5163 137.188 19.1624 137.626 19.6415C138.063 20.1204 138.637 20.36 139.348 20.36C139.786 20.36 140.209 20.2513 140.619 20.0341C141.03 19.8169 141.366 19.4939 141.629 19.0649C141.896 18.6306 142.03 18.0874 142.03 17.4358Z" fill="white"/>
<path d="M153.754 10.0582V12.3851H146V10.0582H153.754ZM147.913 7H151.093V18.9834C151.093 19.3878 151.158 19.6981 151.286 19.9142C151.42 20.1247 151.597 20.2688 151.813 20.3463C152.029 20.424 152.27 20.4627 152.533 20.4627C152.733 20.4627 152.913 20.4488 153.077 20.4212C153.247 20.3934 153.377 20.3685 153.464 20.3463L154 22.6982C153.83 22.7536 153.587 22.8144 153.27 22.881C152.961 22.9474 152.58 22.9863 152.13 22.9973C151.334 23.0195 150.617 22.9059 149.978 22.6566C149.34 22.4017 148.833 22.0084 148.459 21.4766C148.09 20.9446 147.909 20.2799 147.913 19.482V7Z" fill="white"/>
</svg>
