<svg width="23" height="24" viewBox="0 0 23 24" fill="none" xmlns="http://www.w3.org/2000/svg">
<path d="M9.11289 0C4.08531 0 0 4.16584 0 9.29253C0 14.4192 4.08531 18.5851 9.11289 18.5851C11.1021 18.5851 12.9406 17.9317 14.4399 16.8256L21.4924 24L23 22.4626L16.0313 15.3395C17.4008 13.7125 18.2258 11.6007 18.2258 9.29253C18.2258 4.16584 14.1405 0 9.11289 0ZM9.11289 1.09324C13.5605 1.09324 17.1537 4.7573 17.1537 9.29253C17.1537 13.8278 13.5605 17.4918 9.11289 17.4918C4.66533 17.4918 1.0721 13.8278 1.0721 9.29253C1.0721 4.7573 4.66533 1.09324 9.11289 1.09324Z" fill="white"/>
</svg>
