<svg width="27" height="27" viewBox="0 0 27 27" fill="none" xmlns="http://www.w3.org/2000/svg">
<path d="M11.8594 3.71776e-07C11.7202 7.40637e-05 11.5856 0.0495607 11.4796 0.139636C11.3735 0.229712 11.3029 0.35452 11.2804 0.491806L10.7094 3.98718C10.0229 4.18688 9.36821 4.45633 8.75121 4.79195L5.86662 2.73187C5.75369 2.65123 5.61583 2.6132 5.47752 2.62454C5.33921 2.63587 5.20939 2.69583 5.11108 2.79378L2.82726 5.07511C2.72967 5.17277 2.66962 5.30169 2.65766 5.43923C2.64571 5.57677 2.68262 5.71412 2.76191 5.82715L4.79121 8.72983C4.45039 9.35038 4.17494 10.0087 3.97032 10.7016L0.489555 11.2806C0.352678 11.3036 0.228397 11.3744 0.138774 11.4804C0.0491512 11.5864 -1.57299e-05 11.7207 9.6734e-07 11.8595V15.0878C-0.000249397 15.2257 0.0481066 15.3594 0.136581 15.4652C0.225056 15.5711 0.347996 15.6424 0.483823 15.6667L3.96688 16.2835C4.17039 16.9752 4.44409 17.634 4.78548 18.2553L2.73096 21.1293C2.65031 21.2422 2.61228 21.3801 2.62361 21.5184C2.63495 21.6567 2.69491 21.7865 2.79287 21.8848L5.07554 24.1684C5.17299 24.2659 5.30164 24.3259 5.43894 24.3381C5.57623 24.3503 5.71343 24.3137 5.8265 24.2349L8.73516 22.1989C9.35397 22.5365 10.0102 22.8079 10.6991 23.0094L11.2804 26.5093C11.3032 26.6464 11.3739 26.771 11.4799 26.8608C11.5859 26.9506 11.7204 27 11.8594 27H15.0879C15.226 27.0002 15.3598 26.9517 15.4657 26.863C15.5716 26.7743 15.6429 26.6511 15.6669 26.5151L16.2894 23.0014C16.9754 22.7968 17.6286 22.5213 18.2442 22.1817L21.1724 24.236C21.2854 24.3153 21.4228 24.3522 21.5603 24.3403C21.6979 24.3283 21.8268 24.2683 21.9245 24.1707L24.2071 21.8859C24.3055 21.7873 24.3656 21.657 24.3768 21.5182C24.3879 21.3794 24.3493 21.2411 24.2679 21.1281L22.1801 18.23C22.5139 17.6175 22.7829 16.9683 22.9827 16.2869L26.515 15.6678C26.6511 15.6438 26.7743 15.5726 26.863 15.4667C26.9517 15.3608 27.0002 15.227 27 15.0889V11.8606C26.9999 11.7215 26.9504 11.5869 26.8603 11.4809C26.7703 11.3749 26.6454 11.3043 26.5082 11.2817L22.9815 10.7051C22.7804 10.0245 22.5107 9.37647 22.1767 8.76422L24.2358 5.83059C24.3151 5.71756 24.352 5.58021 24.34 5.44267C24.3281 5.30513 24.268 5.17621 24.1704 5.07855L21.8866 2.79607C21.788 2.6977 21.6577 2.63759 21.5189 2.62646C21.38 2.61533 21.2418 2.65391 21.1288 2.73531L18.2385 4.81373C17.6227 4.47543 16.969 4.20143 16.2814 3.99864L15.6669 0.486074C15.6431 0.349838 15.572 0.226373 15.466 0.137447C15.3601 0.0485211 15.2262 -0.000155204 15.0879 3.71776e-07H11.8594ZM12.3592 1.17391H14.5949L15.1796 4.51108C15.1991 4.62301 15.2506 4.72689 15.3279 4.81011C15.4053 4.89334 15.5051 4.95234 15.6153 4.97996C16.4738 5.19388 17.2801 5.53297 18.0161 5.97847C18.1144 6.03809 18.2282 6.06748 18.3432 6.06299C18.4581 6.05851 18.5692 6.02035 18.6627 5.95325L21.4097 3.97915L22.9907 5.56004L21.0348 8.34693C20.9694 8.4399 20.9325 8.54983 20.9284 8.66338C20.9244 8.77693 20.9533 8.88922 21.0118 8.98663C21.453 9.72086 21.7875 10.522 22.0013 11.3757C22.0291 11.4869 22.0889 11.5875 22.1732 11.6651C22.2576 11.7428 22.3628 11.794 22.4759 11.8125L25.826 12.3605V14.596L22.469 15.1852C22.357 15.205 22.2532 15.257 22.1701 15.3347C22.0871 15.4125 22.0284 15.5127 22.0013 15.6231C21.79 16.4758 21.4552 17.2769 21.0141 18.0111C20.9549 18.1095 20.9259 18.223 20.9306 18.3377C20.9352 18.4525 20.9735 18.5633 21.0405 18.6565L23.0239 21.409L21.4429 22.991L18.6604 21.0387C18.5669 20.9733 18.4565 20.9365 18.3424 20.9328C18.2284 20.9291 18.1158 20.9588 18.0183 21.0181C17.286 21.4636 16.4789 21.8043 15.6233 22.0212C15.5136 22.0488 15.4143 22.1076 15.3372 22.1904C15.2601 22.2731 15.2086 22.3764 15.1888 22.4878L14.5961 25.8261H12.3569L11.8043 22.5027C11.7855 22.3896 11.734 22.2845 11.6562 22.2004C11.5784 22.1163 11.4776 22.0568 11.3664 22.0292C10.5074 21.8175 9.69743 21.4789 8.95643 21.0341C8.85915 20.9759 8.74707 20.947 8.63374 20.9511C8.52042 20.9552 8.41069 20.992 8.31783 21.0571L5.55707 22.991L3.97491 21.4067L5.92624 18.6794C5.99293 18.586 6.03075 18.475 6.03503 18.3603C6.03931 18.2456 6.00986 18.1322 5.95032 18.034C5.50066 17.2911 5.16059 16.4813 4.94599 15.6185C4.91853 15.5087 4.85987 15.4091 4.77707 15.3318C4.69427 15.2545 4.59088 15.2028 4.47936 15.1829L1.17401 14.596V12.357L4.47707 11.8079C4.58999 11.7892 4.69496 11.7379 4.77909 11.6603C4.86322 11.5827 4.92282 11.4822 4.95057 11.3711C5.16702 10.5054 5.50693 9.69578 5.95491 8.95453C6.01398 8.85721 6.04348 8.74482 6.03982 8.63104C6.03615 8.51726 5.99948 8.407 5.93427 8.31369L4.00586 5.55774L5.58917 3.97571L8.32586 5.93147C8.41896 5.99785 8.52943 6.0356 8.64369 6.04008C8.75795 6.04456 8.87103 6.01558 8.96904 5.95669C9.70612 5.51404 10.5179 5.17818 11.3778 4.96735C11.4896 4.93983 11.5908 4.88006 11.6689 4.79547C11.747 4.71088 11.7985 4.60521 11.8169 4.49159L12.3592 1.17391ZM13.5 8.80435C10.9134 8.80435 8.80395 10.9136 8.80395 13.5C8.80395 16.0864 10.9134 18.1957 13.5 18.1957C16.0866 18.1957 18.1961 16.0864 18.1961 13.5C18.1961 10.9136 16.0866 8.80435 13.5 8.80435ZM13.5 9.97826C15.4521 9.97826 17.022 11.548 17.022 13.5C17.022 15.452 15.4521 17.0217 13.5 17.0217C11.5479 17.0217 9.97796 15.452 9.97796 13.5C9.97796 11.548 11.5479 9.97826 13.5 9.97826Z" fill="white"/>
</svg>
